PathFileType	4	(X/Y/Z)	C:/Users/beibeiliu/ov580/test_trc/User2\sequence.29_training_dense_left.trc
DataRate	CameraRate	NumFrames	NumMarkers	Units	OrigDataRate	OrigDataStartFrame	OrigNumFrames
120	120	15	19	mm	120	1	78
Frame#	Time	ThumbCMC			ThumbMCP			ThumbIP			ThumbTip			IndexMCP			IndexPIP			IndexTip			MiddleMCP			MiddlePIP			MiddleTip			RingMCP			RingPIP			RingTip			PinkyMCP			PinkyPIP			PinkyTip			BackHand1			BackHand2			BackHand3	
		X0	Y0	Z0	X1	Y1	Z1	X2	Y2	Z2	X3	Y3	Z3	X4	Y4	Z4	X5	Y5	Z5	X6	Y6	Z6	X7	Y7	Z7	X8	Y8	Z8	X9	Y9	Z9	X10	Y10	Z10	X11	Y11	Z11	X12	Y12	Z12	X13	Y13	Z13	X14	Y14	Z14	X15	Y15	Z15	X16	Y16	Z16	X17	Y17	Z17	X18	Y18	Z18	
0	0	-278.903	50.5833	-27.2791	-262.696	69.2637	-57.0589	-249.089	79.9123	-89.6429	-230.13	80.8521	-112.861	-255.972	21.6386	-98.1355	-244.504	42.8975	-116.079	-227.3	72.1488	-126.14	-235.984	14.5551	-99.3575	-219.576	39.7995	-119.161	-204.597	72.6232	-121.245	-215.099	12.0942	-93.9997	-203.376	32.578	-109.358	-197.107	65.7799	-109.954	-195.552	8.73426	-75.5178	-187.183	28.1591	-93.4119	-188.077	57.0596	-103.874	-234.568	-9.3346	-34.7391	-241.203	-4.39248	3.75973	-270.354	3.56494	-23.7526	
1	0.00833333	-280.453	40.9704	-28.6445	-267.994	54.9549	-61.754	-254.585	57.0737	-92.6056	-240.428	56.4219	-119.301	-271.8	4.28669	-97.48	-257.392	22.7719	-120.111	-239.504	46.9983	-131.955	-254.572	-4.91913	-101.731	-239.93	12.984	-122.849	-218.965	44.6511	-130.897	-230.818	-15.1127	-94.0526	-222.891	4.80611	-115.83	-210.907	40.7538	-121.917	-215.853	-15.6506	-76.2005	-203.646	2.86757	-105.111	-199.862	24.5986	-116.941	-245.197	-22.3938	-29.4778	-250.024	-15.2819	2.62675	-280.134	-3.97376	-21.5375	
2	0.0166667	-285.394	33.1508	-27.6986	-275.738	40.9498	-62.1034	-268.32	38.493	-101.991	-258.021	34.0247	-121.296	-295.799	-9.08479	-97.5266	-281.193	0.22023	-118.2	-266.92	21.3936	-135.659	-277.676	-26.8952	-95.9256	-264.573	-10.3246	-124.747	-245.531	16.6426	-138.507	-260.637	-35.6818	-91.7268	-247.389	-18.85	-121.213	-233.298	9.82388	-130.202	-237.606	-39.3776	-79.7477	-228.955	-26.0189	-109.023	-225.209	-3.54398	-123.829	-259.831	-36.4297	-27.4539	-258.415	-23.0742	3.01778	-288.544	-11.0871	-14.3325	
3	0.025	-296.56	25.9895	-33.4308	-287.264	28.1412	-67.0732	-284.852	24.9217	-102.802	-278.835	19.0254	-125.444	-320.372	-20.7544	-91.0805	-311.469	-10.3644	-119.948	-290.663	1.02038	-134.062	-308.714	-37.4052	-90.4249	-294.964	-25.9574	-125.439	-272.086	-4.6063	-141.388	-291.59	-49.7302	-91.9715	-280.228	-39.0298	-121.242	-267.429	-15.0941	-133.648	-269.845	-53.3152	-78.4707	-265.981	-45.8581	-111.195	-257.231	-27.2827	-130.706	-281.549	-45.8772	-29.2128	-269.347	-35.277	1.69742	-304.115	-16.4663	-13.5723	
4	0.0333333	-301.772	21.4362	-31.3218	-300.144	24.1146	-71.4852	-300.505	23.7396	-105.869	-298.031	12.8394	-131.331	-345.937	-19.3924	-84.6375	-337.859	-14.9293	-113.957	-317.576	-0.380591	-134.677	-335.58	-38.3118	-93.2795	-322.298	-27.4481	-125.698	-300.389	-12.0087	-142.418	-314.037	-56.8334	-90.5151	-309.083	-43.7393	-122.519	-288.696	-20.582	-135.35	-292.578	-64.6902	-83.0391	-294.779	-54.5359	-111.042	-284.747	-37.0522	-133.457	-300.389	-51.6421	-28.302	-288.068	-37.4424	-1.0109	-315.74	-18.027	-13.6066	
5	0.0416667	-308.453	21.767	-35.5234	-305.55	25.9871	-71.3631	-309.262	23.0253	-108.051	-308.362	15.1272	-133.493	-358.576	-9.09926	-81.9174	-347.35	-7.23731	-115.509	-328.803	5.17748	-133.539	-348.094	-33.8968	-91.5911	-339.631	-23.4463	-123.614	-311.613	-10.6239	-142.378	-331.702	-52.9177	-91.0794	-324.196	-41.5564	-122.966	-303.985	-21.5822	-134.763	-313.273	-62.1115	-83.385	-313.578	-53.8348	-111.195	-300.529	-35.929	-132.983	-313.452	-45.9403	-26.8408	-295.331	-38.734	-2.39463	-324.689	-11.3975	-12.7045	
6	0.05	-304.668	32.6135	-34.3739	-301.246	36.7589	-71.9981	-302.073	34.1746	-103.798	-306.263	25.6083	-129.812	-358.885	10.2982	-85.7892	-351.416	17.7385	-110.514	-327.807	20.2091	-132.272	-355.755	-13.4718	-91.7901	-346.722	-3.80623	-120.921	-315.492	5.60342	-143.423	-345.811	-30.8459	-88.8209	-336.081	-24.2807	-120.752	-308.581	-3.70104	-134.946	-327.516	-50.2472	-86.0158	-324.019	-37.9829	-117.582	-309.626	-22.3585	-134.547	-323.333	-33.3338	-28.4725	-303.264	-34.1037	-2.19479	-326.553	-2.6288	-10.3472	
7	0.0583333	-285.664	45.8905	-25.4922	-281.49	50.585	-64.1837	-287.343	53.6959	-102.351	-291.677	47.4241	-127.141	-346.265	48.7686	-80.3711	-332.739	53.1571	-109.587	-313.698	47.152	-128.601	-350.456	26.6931	-88.371	-337.33	30.9401	-117.847	-304.337	33.9129	-140.594	-348.379	5.42557	-88.6658	-334.537	6.78955	-119.39	-305.751	15.431	-132.07	-339.573	-18.3361	-88.001	-330.743	-8.4812	-112.977	-308.204	3.85441	-133.461	-331.036	-14.1023	-27.469	-313.168	-17.7192	-2.08759	-322.96	23.0287	-6.57205	
8	0.0666667	-259.853	54.8021	-19.9335	-254.061	59.6003	-57.4478	-257.27	63.3886	-90.8209	-266.514	62.4196	-118.912	-309.572	86.6166	-69.53	-295.269	85.4718	-101.422	-273.814	76.0716	-122.254	-323.103	69.1809	-77.8368	-307.455	66.5637	-113.667	-281.607	57.9766	-133.914	-330.165	47.551	-85.6364	-315.918	46.4175	-113.396	-283.614	44.826	-127.823	-331.778	20.8049	-80.7947	-318.934	28.7288	-107.328	-296.068	31.2424	-128.636	-324.569	23.4379	-24.0477	-309.526	5.65144	3.285	-301.102	46.3345	-1.34814	
9	0.075	-230.152	52.9571	-12.4473	-216.614	59.697	-51.6588	-216.423	65.2018	-84.7806	-228.465	63.6478	-109.551	-259.92	103.506	-64.1597	-251.003	98.406	-90.9326	-235.206	82.4946	-114.948	-278.753	93.479	-74.2345	-263.798	88.9719	-105.147	-244.833	70.5082	-127.52	-291.656	77.2768	-81.2634	-282.16	69.8598	-108.283	-253.523	56.9006	-123.666	-302.448	52.4795	-75.1334	-287.676	52.3964	-105.766	-266.126	48.997	-122.082	-302.752	46.4851	-20.6825	-295.009	28.882	4.24419	-270.554	61.035	4.46768	
10	0.0833333	-199.512	42.6534	-12.1289	-187.033	40.2065	-48.5642	-185.33	43.5371	-84.4573	-192.449	45.6175	-111.732	-216.3	92.5508	-67.3709	-203.668	84.1964	-91.8659	-195.51	61.7265	-115.542	-235.883	88.4699	-78.0481	-222.653	78.1345	-105.171	-211.221	52.8176	-127.664	-257.564	72.8244	-83.1121	-243.373	65.0598	-108.85	-218.449	43.6184	-123.451	-269.236	56.3528	-76.3807	-254.228	51.2847	-105.56	-233.902	39.1415	-119.853	-272.392	53.656	-20.9642	-269.482	36.2908	3.47353	-240.486	60.8154	3.42315	
11	0.0916667	-177.33	17.3921	-11.928	-159.939	7.8565	-48.3984	-157.459	5.51968	-84.0654	-166.487	4.1177	-108.97	-179.316	63.6234	-75.5271	-169.757	47.3798	-99.6478	-167.194	25.4607	-115.81	-202.276	61.0822	-83.3507	-191.696	41.8638	-112.87	-181.028	10.8201	-129.677	-225.109	50.4333	-87.275	-210.471	36.2962	-111.454	-195.953	8.66065	-122.062	-237.871	38.2397	-85.1994	-226.477	25.8558	-106.068	-208.431	3.43806	-120.262	-243.867	45.6727	-26.3655	-246.746	28.534	2.84881	-207.404	47.861	-3.44205	
12	0.1	-162.518	5.80012	-16.3979	-151.64	-13.7994	-46.5075	-143.208	-25.7607	-80.7601	-145.722	-32.5534	-105.671	-161.104	34.7566	-85.0263	-151.585	14.5637	-103.173	-150.028	-10.3391	-114.257	-182.643	30.7491	-92.6902	-174.315	3.76769	-115.273	-167.665	-25.8643	-124.104	-209.126	20.7124	-95.6571	-191.377	-1.17913	-114.149	-178.37	-30.3165	-114.043	-226.745	9.28238	-86.7094	-212.124	-8.48134	-106.44	-189.825	-32.8	-111.78	-222.189	31.497	-34.5661	-228.336	20.1032	0.878369	-192.823	34.9323	-9.14016	
13	0.108333	-154.106	4.47619	-12.6607	-137.435	-18.0534	-43.4144	-131.562	-34.5145	-74.7888	-131.879	-48.4386	-96.2608	-161.47	20.9111	-87.7437	-147.515	-0.435478	-102.518	-138.101	-32.6478	-108.68	-178.002	9.78517	-97.7626	-162.922	-17.8109	-111.111	-151.483	-47.3021	-112.407	-198.502	-3.08863	-97.8367	-184.134	-25.2002	-108.257	-163.453	-50.6682	-100.059	-214.084	-14.2486	-89.3133	-195.659	-39.0149	-100.291	-172.642	-54.1062	-95.0698	-219.167	18.2221	-39.8308	-224.367	16.3674	-4.81914	-191.557	33.4709	-13.1817	
14	0.116667	-158.872	22.6673	-14.6422	-136.182	0.505481	-36.9081	-123.359	-19.7051	-65.5738	-121.648	-36.2384	-85.0911	-167.129	19.7482	-92.1974	-148.656	0.759893	-101.457	-130.29	-25.0332	-100.832	-181.639	6.89406	-95.5973	-157.855	-17.4854	-106.207	-135.313	-48.4968	-100.977	-196.304	-13.8435	-94.6739	-173.194	-34.2326	-101.414	-148.223	-47.4856	-88.3855	-209.662	-32.7537	-84.2892	-186.021	-47.3252	-90.7649	-153.853	-55.9586	-80.2133	-229.064	7.24308	-39.5733	-228.521	10.3287	-7.65938	-204.826	35.1272	-21.6494	
